<?xml version="1.0" encoding="UTF-8" standalone="no"?>
<svg
   xmlns:dc="http://purl.org/dc/elements/1.1/"
   xmlns:cc="http://creativecommons.org/ns#"
   xmlns:rdf="http://www.w3.org/1999/02/22-rdf-syntax-ns#"
   xmlns:svg="http://www.w3.org/2000/svg"
   xmlns="http://www.w3.org/2000/svg"
   xmlns:sodipodi="http://sodipodi.sourceforge.net/DTD/sodipodi-0.dtd"
   xmlns:inkscape="http://www.inkscape.org/namespaces/inkscape"
   inkscape:version="1.0 (4035a4f, 2020-05-01)"
   sodipodi:docname="hoof1.svg"
   id="svg246"
   version="1.1"
   fill="none"
   viewBox="0 0 767.99996 453"
   height="453"
   width="768">
  <metadata
     id="metadata252">
    <rdf:RDF>
      <cc:Work
         rdf:about="">
        <dc:format>image/svg+xml</dc:format>
        <dc:type
           rdf:resource="http://purl.org/dc/dcmitype/StillImage" />
        <dc:title></dc:title>
      </cc:Work>
    </rdf:RDF>
  </metadata>
  <defs
     id="defs250" />
  <sodipodi:namedview
     inkscape:current-layer="svg246"
     inkscape:window-maximized="0"
     inkscape:window-y="25"
     inkscape:window-x="0"
     inkscape:cy="553.77063"
     inkscape:cx="23.128065"
     inkscape:zoom="0.57126747"
     width="768mm"
     units="px"
     showgrid="false"
     id="namedview248"
     inkscape:window-height="1245"
     inkscape:window-width="2376"
     inkscape:pageshadow="2"
     inkscape:pageopacity="0"
     guidetolerance="10"
     gridtolerance="10"
     objecttolerance="10"
     borderopacity="1"
     bordercolor="#666666"
     pagecolor="#ffffff" />
  <path
     style="stroke-width:0.964935"
     id="path150"
     stroke-linejoin="round"
     stroke-linecap="round"
     stroke-miterlimit="10"
     stroke-opacity="0.8"
     stroke="#000000"
     fill-opacity="0.7"
     fill="#bababa"
     d="m 300.13123,324.69495 c 41.41239,31.59057 115.98707,25.70797 166.09914,-24.85476 4.95582,29.03189 8.25008,58.73996 1.39627,85.44821 -20.82488,80.977 -146.59141,94.47866 -190.16615,6.29471 -4.34984,-8.79538 -8.03971,-17.58978 -11.17666,-26.29614 18.03047,-14.11884 28.57509,-31.44454 33.8474,-40.59202 z" />
  <path
     style="stroke-width:0.964935"
     id="path152"
     stroke-linejoin="round"
     stroke-linecap="round"
     stroke-miterlimit="10"
     stroke-opacity="0.8"
     stroke="#000000"
     fill-opacity="0.7"
     fill="#bababa"
     d="m 300.13216,324.69495 c -4.06035,6.35372 -8.01365,12.88349 -12.89035,19.38426 -5.43055,6.9709 -12.33742,14.44192 -20.95705,21.20776 -21.53698,-60.24037 -14.76228,-118.39216 5.82523,-169.98517 71.12125,52.21018 37.35296,114.77417 28.02217,129.39315 z" />
  <path
     style="stroke-width:0.964935"
     id="path154"
     stroke-linejoin="round"
     stroke-linecap="round"
     stroke-miterlimit="10"
     stroke-opacity="0.8"
     stroke="#000000"
     fill-opacity="0.7"
     fill="#bababa"
     d="m 309.11947,237.57028 c 2.5831,-4.08811 16.21254,-20.50157 37.59034,-44.26803 21.37872,-23.76745 40.51691,-36.856 63.66145,-14.67798 10.59674,10.17777 29.49756,35.82673 45.63004,59.29911 2.03018,19.29523 6.56433,40.38596 10.25513,61.8878 -21.85346,22.05999 -48.37231,35.59067 -74.78599,41.2382 -0.18431,0.03 -0.34255,0.059 -0.52686,0.11804 -1.66062,0.3531 -3.29519,0.64717 -4.95582,0.94126 -0.36954,0.059 -0.73816,0.11803 -1.1077,0.17605 -1.44933,0.23605 -2.89959,0.47112 -4.37591,0.64717 -0.57992,0.089 -1.13284,0.14704 -1.71276,0.20606 -1.26595,0.14703 -2.5049,0.29407 -3.76992,0.4121 -0.76422,0.059 -1.55544,0.11704 -2.31967,0.17605 -1.05465,0.088 -2.10929,0.14704 -3.13695,0.20606 -0.97552,0.059 -1.97711,0.088 -2.95264,0.088 -0.84335,0.03 -1.66063,0.059 -2.47791,0.059 -1.21196,0 -2.39879,0 -3.58469,-0.029 -0.60598,0 -1.21289,-0.03 -1.81887,-0.03 -1.42326,-0.059 -2.84746,-0.11704 -4.24466,-0.23507 -0.36861,-0.029 -0.73723,-0.029 -1.10677,-0.059 -1.66063,-0.11703 -3.29518,-0.29408 -4.92975,-0.50013 -0.13125,-0.029 -0.26343,-0.029 -0.36861,-0.029 -18.10961,-2.23561 -34.69076,-8.50031 -47.8976,-18.56004 5.14013,-8.06019 17.60881,-30.5323 16.0273,-57.82871 -0.0261,-0.35309 -0.053,-0.7352 -0.0791,-1.0883 -0.0261,-0.52914 -0.0791,-1.02928 -0.13125,-1.55942 -0.73816,-8.47129 -2.84745,-17.35371 -6.98599,-26.38417 z" />
  <path
     style="stroke-width:0.964935"
     id="path156"
     stroke-linejoin="round"
     stroke-linecap="round"
     stroke-miterlimit="10"
     stroke-opacity="0.8"
     stroke="#000000"
     fill-opacity="0.7"
     fill="#bababa"
     d="m 417.59556,48.877727 c 20.95611,-20.119365 36.03488,-11.295068 36.03488,7.265273 0,9.589104 -3.92817,81.80122 -3.92817,81.80122 l 10.83504,1.0883 c -3.55862,36.14982 -6.30089,72.06457 -5.45661,88.35999 0.18431,3.38292 0.50079,6.88288 0.86941,10.41283 -8.93612,-12.97152 -18.74258,-26.59022 -27.49439,-37.9153 -0.21037,-0.26407 -0.39561,-0.52914 -0.60598,-0.7642 -0.26343,-0.35309 -0.52779,-0.67718 -0.79122,-1.00027 -6.48426,-8.32427 -12.33649,-15.26615 -16.76545,-19.5013 -5.08707,-4.88333 -9.99076,-8.06019 -14.73528,-9.79567 -16.97677,-6.20568 -32.31803,5.8836 -49.00436,24.50267 -2.16236,2.41165 -4.24466,4.76429 -6.2739,7.08892 -17.71492,19.91341 -29.02377,33.67915 -31.34343,37.35614 0,0 -3.0839,-9.88368 -15.60563,-23.5904 C 328.83851,131.6195 396.21682,69.379396 417.59556,48.877727 Z" />
  <path
     style="stroke-width:0.964935"
     id="path158"
     stroke-linejoin="round"
     stroke-linecap="round"
     stroke-miterlimit="10"
     stroke-opacity="0.8"
     stroke="#000000"
     fill-opacity="0.7"
     fill="#909090"
     d="m 471.7931,42.436477 c -1.871,11.883428 -7.09118,54.386973 -11.22972,96.596043 l -10.83411,-1.0883 c 0,0 3.92816,-72.241023 3.92816,-81.80062 0,-18.531033 -15.07876,-27.35533 -36.03581,-7.265373 -9.22561,8.853705 -27.01966,25.472719 -47.10637,48.151079 L 352.19434,73.792094 C 385.27753,38.700863 419.01882,13.757588 439.87068,3.1979293 455.15982,-4.56742 477.19759,7.9630337 471.7931,42.436477 Z" />
  <path
     style="stroke-width:0.964935"
     id="path160"
     stroke-linejoin="round"
     stroke-linecap="round"
     stroke-miterlimit="10"
     stroke-opacity="0.8"
     stroke="#000000"
     fill-opacity="0.7"
     fill="#909090"
     d="m 293.38353,214.18593 c -5.27231,-5.76557 -12.17918,-12.20732 -21.27354,-18.88413 18.79563,-47.1218 49.1626,-88.7431 80.08435,-121.510406 l 18.32091,23.237212 C 344.02246,126.88422 313.54937,167.24018 293.38353,214.18593 Z" />
  <path
     id="path162"
     stroke-linejoin="round"
     stroke-linecap="round"
     stroke-miterlimit="10"
     stroke-width="1.92987"
     stroke-opacity="0.8"
     stroke="#000000"
     d="M 277.46328,391.58311 C 321.03709,479.76706 446.80455,466.2654 467.62943,385.2884 480.51978,335.13678 457.58653,274.4553 455.13469,227.39251 453.28975,192.06592 468.34152,64.496869 471.82103,42.436177 477.22458,7.9627135 455.18775,-4.56777 439.89861,3.1681713 375.07732,35.994428 186.30745,207.06799 277.46328,391.58311 Z" />
  <path
     style="stroke-width:0.964935"
     id="path164"
     stroke-linejoin="round"
     stroke-linecap="round"
     stroke-miterlimit="10"
     stroke-opacity="0.8"
     stroke="#000000"
     fill-opacity="0.7"
     fill="#bababa"
     d="m 719.96488,324.69495 c -41.41238,31.59057 -115.98707,25.70797 -166.09913,-24.85476 -4.95582,29.03189 -8.25102,58.73996 -1.3972,85.44821 20.8258,80.977 146.59233,94.47866 190.16707,6.29471 4.34891,-8.79538 8.03972,-17.58978 11.17666,-26.29614 -18.03047,-14.11884 -28.57509,-31.44454 -33.8474,-40.59202 z" />
  <path
     style="stroke-width:0.964935"
     id="path166"
     stroke-linejoin="round"
     stroke-linecap="round"
     stroke-miterlimit="10"
     stroke-opacity="0.8"
     stroke="#000000"
     fill-opacity="0.7"
     fill="#bababa"
     d="m 719.96581,324.69495 c 4.05942,6.35372 8.01365,12.88349 12.89035,19.38426 5.43055,6.9709 12.33743,14.44192 20.95706,21.20776 21.53696,-60.24037 14.76227,-118.39216 -5.82524,-169.98517 -71.12124,52.21018 -37.3539,114.77417 -28.02217,129.39315 z" />
  <path
     style="stroke-width:0.964935"
     id="path168"
     stroke-linejoin="round"
     stroke-linecap="round"
     stroke-miterlimit="10"
     stroke-opacity="0.8"
     stroke="#000000"
     fill-opacity="0.7"
     fill="#bababa"
     d="m 710.97756,237.57028 c -2.58402,-4.08811 -16.21253,-20.50157 -37.59033,-44.26803 -21.37873,-23.76745 -40.51691,-36.856 -63.66145,-14.67798 -10.59674,10.17677 -29.49756,35.82673 -45.63098,59.29911 -2.02924,19.29523 -6.56338,40.38596 -10.25419,61.8878 21.85346,22.05999 48.37232,35.59067 74.78599,41.2382 0.18431,0.03 0.34255,0.059 0.52685,0.11804 1.66063,0.3531 3.29519,0.64717 4.95582,0.94126 0.36862,0.059 0.73816,0.11703 1.10678,0.17605 1.45026,0.23605 2.89958,0.47112 4.3759,0.64717 0.57992,0.088 1.13377,0.14704 1.71369,0.20606 1.26502,0.14703 2.50398,0.29407 3.76993,0.4121 0.76422,0.059 1.55544,0.11704 2.31966,0.17605 1.05465,0.088 2.10837,0.14704 3.13695,0.20606 0.97553,0.059 1.97712,0.088 2.95264,0.088 0.84335,0.03 1.66063,0.059 2.47792,0.059 1.21196,0 2.39878,0 3.58468,-0.029 0.60598,0 1.21289,-0.03 1.81887,-0.03 1.42327,-0.059 2.84653,-0.11704 4.24373,-0.23507 0.36954,-0.029 0.73816,-0.029 1.10771,-0.059 1.66062,-0.11703 3.29519,-0.29408 4.92882,-0.50013 0.13218,-0.029 0.26436,-0.029 0.36955,-0.029 18.1096,-2.23561 34.69074,-8.50131 47.89758,-18.56004 -5.14013,-8.06019 -17.60881,-30.5323 -16.0273,-57.82871 0.0261,-0.35309 0.0521,-0.7352 0.0791,-1.0883 0.0261,-0.53014 0.0791,-1.03028 0.13125,-1.55942 0.73816,-8.47129 2.84746,-17.35371 6.986,-26.38417 z" />
  <path
     style="stroke-width:0.964935"
     id="path170"
     stroke-linejoin="round"
     stroke-linecap="round"
     stroke-miterlimit="10"
     stroke-opacity="0.8"
     stroke="#000000"
     fill-opacity="0.7"
     fill="#bababa"
     d="M 602.50428,48.877627 C 581.54722,28.758362 566.46846,37.582559 566.46846,56.1429 c 0,9.589104 3.92816,81.80132 3.92816,81.80132 l -10.8341,1.0883 c 3.55862,36.14982 6.29996,72.06457 5.45661,88.35999 -0.18431,3.38292 -0.5008,6.88288 -0.87034,10.41283 8.93612,-12.97152 18.74258,-26.59022 27.49439,-37.9153 0.2113,-0.26407 0.3956,-0.52914 0.60598,-0.7642 0.26436,-0.35309 0.52779,-0.67718 0.79121,-1.00027 6.48521,-8.32427 12.3365,-15.26615 16.76547,-19.5023 5.088,-4.88233 9.99076,-8.05919 14.73528,-9.79467 16.97675,-6.20568 32.31895,5.8826 49.00529,24.50267 2.16142,2.41165 4.24372,4.76429 6.2739,7.08892 17.71399,19.91341 29.02282,33.67915 31.34249,37.35514 0,0 3.08389,-9.88268 15.60563,-23.5894 C 691.2604,131.6195 623.88208,69.379396 602.50428,48.877627 Z" />
  <path
     style="stroke-width:0.964935"
     id="path172"
     stroke-linejoin="round"
     stroke-linecap="round"
     stroke-miterlimit="10"
     stroke-opacity="0.8"
     stroke="#000000"
     fill-opacity="0.7"
     fill="#909090"
     d="m 548.30394,42.436477 c 1.871,11.883428 7.09026,54.386973 11.22973,96.596043 l 10.8341,-1.0883 c 0,0 -3.92817,-72.241023 -3.92817,-81.80062 0,-18.531033 15.07877,-27.35533 36.0349,-7.265373 9.22654,8.853705 27.02057,25.472719 47.10729,48.151079 l 18.3209,-23.237212 C 634.81951,38.700863 601.07823,13.757588 580.22635,3.1979293 564.93721,-4.56742 542.89946,7.9630337 548.30394,42.436477 Z" />
  <path
     style="stroke-width:0.964935"
     id="path174"
     stroke-linejoin="round"
     stroke-linecap="round"
     stroke-miterlimit="10"
     stroke-opacity="0.8"
     stroke="#000000"
     fill-opacity="0.7"
     fill="#909090"
     d="m 726.71351,214.18593 c 5.27138,-5.76557 12.17825,-12.20732 21.27261,-18.88413 C 729.19142,148.18 698.82351,106.5587 667.90269,73.791394 l -18.3209,23.237212 c 26.49186,29.855614 56.96495,70.211574 77.13172,117.157324 z" />
  <path
     id="path176"
     stroke-linejoin="round"
     stroke-linecap="round"
     stroke-miterlimit="10"
     stroke-width="1.92987"
     stroke-opacity="0.8"
     stroke="#000000"
     d="M 742.63655,391.58311 C 699.06181,479.76706 573.29528,466.2654 552.47041,385.2884 539.57913,335.13678 562.51329,274.4553 564.96514,227.39251 566.81008,192.06592 551.75831,64.496869 548.27881,42.436177 542.87432,7.9627135 564.91208,-4.56777 580.20122,3.1681713 645.02251,35.994428 833.79146,207.06799 742.63655,391.58311 Z" />
  <path
     style="stroke-width:0.964935"
     id="path178"
     stroke-linejoin="round"
     stroke-linecap="round"
     stroke-miterlimit="10"
     stroke-opacity="0.8"
     stroke="#000000"
     fill-opacity="0.7"
     fill="#bababa"
     d="M 97.286969,336.62218 C 59.960251,382.27359 15.331516,430.2186 0.96494057,443.07209 c 24.25187543,0 57.25556043,0 88.57208843,0 l 57.202961,-83.09456 z" />
  <path
     style="stroke-width:0.964935"
     id="path180"
     stroke-linejoin="round"
     stroke-linecap="round"
     stroke-miterlimit="10"
     stroke-opacity="0.8"
     stroke="#000000"
     fill-opacity="0.7"
     fill="#bababa"
     d="m 223.31972,396.12734 -76.57787,-36.17982 -57.20296,83.09457 c 37.37969,0 72.43904,0 87.49175,0 23.43404,0.03 43.73205,-15.29515 46.28908,-46.91475 z" />
  <path
     style="stroke-width:0.964935"
     id="path182"
     stroke-linejoin="round"
     stroke-linecap="round"
     stroke-opacity="0.8"
     stroke="#000000"
     d="m 56.878408,442.72 5.140315,-1.32436" />
  <path
     style="stroke-width:0.964935"
     id="path184"
     stroke-dasharray="3.46411, 3.46411"
     stroke-linejoin="round"
     stroke-linecap="round"
     stroke-opacity="0.8"
     stroke="#000000"
     d="M 71.217431,439.014 140.30879,421.15915" />
  <path
     style="stroke-width:0.964935"
     id="path186"
     stroke-linejoin="round"
     stroke-linecap="round"
     stroke-opacity="0.8"
     stroke="#000000"
     d="m 144.92391,419.98282 5.14013,-1.32335" />
  <path
     id="path188"
     stroke-linejoin="round"
     stroke-linecap="round"
     stroke-miterlimit="10"
     stroke-width="1.92987"
     stroke-opacity="0.8"
     stroke="#000000"
     d="M 97.286969,336.62218 C 59.960251,382.27359 15.331516,430.2186 0.96494057,443.07209 c 53.22230043,0 148.38420943,0 176.06383943,0 23.43404,0 43.75811,-15.32415 46.28908,-46.91573" />
  <path
     style="stroke-width:0.964935"
     id="path190"
     stroke-linejoin="round"
     stroke-linecap="round"
     stroke-miterlimit="10"
     stroke-opacity="0.8"
     stroke="#000000"
     fill-opacity="0.7"
     fill="#bababa"
     d="m 97.286969,120.28042 c -37.326718,45.6504 -81.955453,93.59543 -96.32202843,106.44992 24.25187543,0 57.25556043,0 88.57208843,0 l 57.202961,-83.09557 z" />
  <path
     style="stroke-width:0.964935"
     id="path192"
     stroke-linejoin="round"
     stroke-linecap="round"
     stroke-miterlimit="10"
     stroke-opacity="0.8"
     stroke="#000000"
     fill-opacity="0.7"
     fill="#bababa"
     d="m 223.31786,179.78459 -76.57787,-36.17983 -57.202496,83.09556 c 37.379216,0 72.439506,0 87.491286,0 23.43497,0.029 43.73298,-15.29515 46.28908,-46.91573 z" />
  <path
     style="stroke-width:0.964935"
     id="path194"
     stroke-linejoin="round"
     stroke-linecap="round"
     stroke-miterlimit="10"
     stroke-opacity="0.8"
     stroke="#000000"
     fill-opacity="0.7"
     fill="#bababa"
     d="m 223.34485,160.36931 c -2.7674,-21.76591 0.31649,-47.65094 21.35267,-62.210697 L 145.9497,52.390081 c -9.48996,17.70741 -27.91605,42.915356 -48.635737,68.858599 l 126.636867,57.88773 c 0.42261,-5.73656 0.26436,-11.97226 -0.60598,-18.7671 z" />
  <path
     id="path196"
     stroke-linejoin="round"
     stroke-linecap="round"
     stroke-miterlimit="10"
     stroke-width="1.92987"
     stroke-opacity="0.8"
     stroke="#000000"
     d="M 146.63481,52.068694 C 119.74734,100.95517 23.424752,206.64088 0.96539668,226.73034 c 53.22230932,0 148.38468332,0 176.06338332,0 27.67869,0 50.98147,-21.38382 45.8674,-65.68184 -2.53003,-21.79593 0.81729,-47.65095 22.01171,-61.946531" />
  <path
     style="stroke-width:0.964935"
     id="path198"
     fill-opacity="0.8"
     fill="#000000"
     d="m 385.74388,267.70246 h 2.05624 v 2.38065 h -2.05624 v 3.95607 h -2.76182 v -3.95607 h -7.14703 l -0.0791,-1.80749 7.13586,-12.01427 h 2.85211 z m -7.09025,0 h 4.32843 v -7.42402 l -0.20385,0.39011 z" />
  <path
     style="stroke-width:0.964935"
     id="path200"
     fill-opacity="0.8"
     fill="#000000"
     d="m 277.20358,263.7944 h 1.68111 c 0.84893,-0.008 1.51914,-0.24407 2.01155,-0.70819 0.49987,-0.46413 0.75026,-1.13531 0.75026,-2.01454 0,-0.84624 -0.2085,-1.50142 -0.62552,-1.96554 -0.40864,-0.47212 -1.0379,-0.70819 -1.8859,-0.70819 -0.74281,0 -1.35252,0.23206 -1.82911,0.69619 -0.47752,0.45512 -0.71582,1.05328 -0.71582,1.79448 h -2.76182 c 0,-0.91124 0.22341,-1.74247 0.67021,-2.49067 0.45518,-0.74921 1.08351,-1.33137 1.88683,-1.74647 0.81076,-0.42312 1.71554,-0.63518 2.71527,-0.63518 1.65132,0 2.94706,0.44813 3.88627,1.34337 0.94667,0.88724 1.42047,2.12457 1.42047,3.71201 0,0.79821 -0.23829,1.55041 -0.71582,2.25861 -0.47007,0.70019 -1.07978,1.22933 -1.8291,1.58743 0.9085,0.33409 1.59825,0.85923 2.0674,1.57542 0.47752,0.7162 0.71582,1.57143 0.71582,2.56471 0,1.59543 -0.51103,2.86477 -1.53403,3.80903 -1.01462,0.94425 -2.35131,1.41638 -4.01101,1.41638 -1.59081,0 -2.89307,-0.45612 -3.90862,-1.36737 -1.01462,-0.91224 -1.52286,-2.12457 -1.52286,-3.63899 h 2.76182 c 0,0.78221 0.24202,1.41639 0.72699,1.90552 0.49241,0.48813 1.15145,0.7322 1.97711,0.7322 0.85638,0 1.53031,-0.24407 2.02273,-0.7322 0.49242,-0.48913 0.73816,-1.19733 0.73816,-2.12457 0,-0.93626 -0.25691,-1.65745 -0.7726,-2.16159 -0.51476,-0.50514 -1.27991,-0.75721 -2.29547,-0.75721 h -1.62432 z" />
  <path
     style="stroke-width:0.964935"
     id="path202"
     fill-opacity="0.8"
     fill="#000000"
     d="m 377.14194,126.18603 0.89733,-8.96243 h 8.88585 v 2.56369 h -6.59038 l -0.45426,4.24915 c 0.76516,-0.47212 1.62898,-0.70819 2.59055,-0.70819 1.57592,0 2.79905,0.54114 3.67032,1.62444 0.87872,1.08229 1.31808,2.53969 1.31808,4.37119 0,1.80649 -0.48497,3.24788 -1.45398,4.32217 -0.96994,1.06629 -2.29919,1.59943 -3.98868,1.59943 -1.51541,0 -2.77298,-0.46012 -3.77271,-1.37937 -0.99228,-0.92825 -1.53031,-2.14958 -1.61316,-3.663 h 2.66967 c 0.10611,0.86224 0.39468,1.52642 0.86382,1.98955 0.47008,0.45612 1.08351,0.68418 1.84121,0.68418 0.848,0 1.50704,-0.32609 1.97712,-0.97726 0.47659,-0.65118 0.71582,-1.53842 0.71582,-2.66173 0,-1.08229 -0.26157,-1.93752 -0.7847,-2.5637 -0.52221,-0.63517 -1.24175,-0.95225 -2.15863,-0.95225 -0.49987,0 -0.92433,0.073 -1.27247,0.21906 -0.34814,0.13904 -0.72699,0.41511 -1.13656,0.83023 z" />
  <path
     style="stroke-width:0.964935"
     id="path204"
     fill-opacity="0.8"
     fill="#000000"
     d="m 173.86111,112.56133 c -0.92433,1.05028 -2.00318,1.57542 -3.23841,1.57542 -1.45398,0 -2.61289,-0.54614 -3.47671,-1.63644 -0.86383,-1.0993 -1.29574,-2.53969 -1.29574,-4.32218 0,-1.17231 0.21968,-2.2346 0.65904,-3.18686 0.43936,-0.95326 1.06489,-1.69346 1.87472,-2.2226 0.81077,-0.52915 1.74999,-0.79422 2.8186,-0.79422 1.66622,0 2.98802,0.66818 3.96541,2.00254 0.97738,1.33536 1.46608,3.12185 1.46608,5.36046 v 0.83022 c 0,3.20787 -0.67486,5.65354 -2.02273,7.339 -1.34879,1.68445 -3.35942,2.53969 -6.03374,2.56369 h -0.32952 v -2.45366 h 0.39747 c 1.62898,-0.025 2.87911,-0.44412 3.75038,-1.25834 0.87034,-0.82223 1.35903,-2.08757 1.46515,-3.79703 z m -2.6585,-0.74521 c 0.55293,0 1.07141,-0.17105 1.55638,-0.51214 0.48497,-0.34209 0.8601,-0.81422 1.12539,-1.41638 v -1.16031 c 0,-1.31036 -0.2504,-2.36465 -0.75026,-3.16287 -0.49987,-0.79721 -1.14773,-1.19632 -1.94268,-1.19632 -0.79587,0 -1.43257,0.35409 -1.90916,1.06229 -0.47008,0.70019 -0.70465,1.58743 -0.70465,2.66172 0,1.1153 0.2383,2.01455 0.71582,2.69873 0.47752,0.68319 1.11329,1.02528 1.90916,1.02528 z" />
  <path
     style="stroke-width:0.964935"
     id="path206"
     fill-opacity="0.8"
     fill="#000000"
     d="m 171.79742,183.92871 c 0,0.87123 -0.20757,1.64844 -0.62459,2.33263 -0.41702,0.67519 -0.98484,1.20833 -1.70438,1.59944 0.86382,0.43112 1.52659,1.02128 1.98829,1.77048 0.47007,0.7482 0.70465,1.59544 0.70465,2.53968 0,1.56243 -0.49242,2.80377 -1.47726,3.72402 -0.98483,0.91125 -2.29546,1.36737 -3.93189,1.36737 -1.64294,0 -2.96102,-0.46012 -3.95423,-1.37938 -0.9839,-0.92024 -1.47632,-2.15758 -1.47632,-3.71201 0,-0.95225 0.23457,-1.80748 0.70372,-2.56469 0.47007,-0.75721 1.12911,-1.33837 1.97711,-1.74547 -0.71209,-0.39111 -1.27619,-0.92425 -1.69227,-1.59944 -0.40958,-0.68419 -0.61436,-1.4614 -0.61436,-2.33263 0,-1.51441 0.45518,-2.71474 1.36369,-3.60198 0.90943,-0.88724 2.13629,-1.33136 3.68149,-1.33136 1.55358,0 2.78416,0.44412 3.6936,1.33136 0.9085,0.88724 1.36275,2.08757 1.36275,3.60198 z m -2.39692,8.0952 c 0,-0.87924 -0.24668,-1.58744 -0.73909,-2.12458 -0.48497,-0.54515 -1.12819,-0.81822 -1.93151,-0.81822 -0.80332,0 -1.44653,0.26907 -1.9315,0.80622 -0.47753,0.53714 -0.71582,1.24934 -0.71582,2.13658 0,0.87124 0.23457,1.56743 0.70465,2.08857 0.47659,0.52114 1.1319,0.78121 1.96501,0.78121 0.83404,0 1.48098,-0.25207 1.94361,-0.75721 0.46914,-0.50414 0.70465,-1.20833 0.70465,-2.11257 z m -0.35279,-7.98517 c 0,-0.77321 -0.20758,-1.40839 -0.6246,-1.90452 -0.41702,-0.50513 -0.97739,-0.7572 -1.68204,-0.7572 -0.70465,0 -1.26129,0.24006 -1.66994,0.72019 -0.40957,0.47213 -0.61342,1.1193 -0.61342,1.94153 0,0.81422 0.20385,1.4614 0.61342,1.94153 0.41609,0.48013 0.97739,0.72019 1.68111,0.72019 0.70465,0 1.2613,-0.24006 1.67087,-0.72019 0.41702,-0.48013 0.6246,-1.12731 0.6246,-1.94153 z" />
  <path
     style="stroke-width:0.964935"
     id="path208"
     fill-opacity="0.8"
     fill="#000000"
     d="m 165.13164,417.07804 h -2.74972 v -14.27388 l -4.05662,1.4894 v -2.50267 l 6.45355,-2.5517 h 0.35279 z" />
  <path
     style="stroke-width:0.964935"
     id="path210"
     fill-opacity="0.8"
     fill="#000000"
     d="m 182.00508,417.07804 h -11.12361 v -2.03956 l 5.51061,-6.45875 c 0.79494,-0.95226 1.35996,-1.74647 1.69321,-2.38065 0.34069,-0.64317 0.51103,-1.28634 0.51103,-1.92952 0,-0.84724 -0.2234,-1.53041 -0.67021,-2.05155 -0.43936,-0.52115 -1.03417,-0.78122 -1.78443,-0.78122 -0.89361,0 -1.58709,0.29308 -2.07858,0.87924 -0.49241,0.58615 -0.73909,1.38738 -0.73909,2.40465 h -2.76089 c 0,-1.08229 0.22713,-2.05455 0.68138,-2.91779 0.46263,-0.87123 1.11795,-1.54642 1.96595,-2.02656 0.85638,-0.48112 1.84121,-0.72119 2.9545,-0.72119 1.60571,0 2.87073,0.43612 3.79506,1.30736 0.93178,0.86223 1.3972,2.05856 1.3972,3.58898 0,0.88724 -0.23457,1.81948 -0.70372,2.79675 -0.46263,0.96827 -1.22406,2.07157 -2.2843,3.3089 l -4.04545,4.65227 h 7.68134 z" />
  <path
     style="stroke-width:0.964935"
     id="path212"
     fill-opacity="0.8"
     fill="#000000"
     d="m 68.323526,420.07885 h -2.749811 v -14.27387 l -4.056531,1.4894 v -2.50268 l 6.45411,-2.55169 h 0.352232 z" />
  <path
     style="stroke-width:0.964935"
     id="path214"
     fill-opacity="0.8"
     fill="#000000"
     d="m 81.549909,420.07885 h -2.749811 v -14.27387 l -4.056531,1.4894 v -2.50268 l 6.45411,-2.55169 h 0.352232 z" />
  <path
     style="stroke-width:0.964935"
     id="path216"
     fill-opacity="0.8"
     fill="#000000"
     d="m 83.027533,180.88888 -6.613191,16.12938 h -2.897537 l 6.601836,-15.39718 h -8.556239 v -2.38065 h 11.465131 z" />
  <path
     style="stroke-width:0.964935"
     id="path218"
     fill-opacity="0.8"
     fill="#000000"
     d="m 453.69374,31.973435 h -2.74972 V 17.699558 l -4.05663,1.489605 v -2.50308 l 6.45356,-2.551993 h 0.35279 z" />
  <path
     style="stroke-width:0.964935"
     id="path220"
     fill-opacity="0.8"
     fill="#000000"
     d="m 564.46435,31.973435 h -2.74972 V 17.699558 l -4.05662,1.489605 v -2.50308 l 6.45354,-2.551993 h 0.3528 z" />
  <path
     style="stroke-width:0.964935"
     id="path222"
     fill-opacity="0.8"
     fill="#000000"
     d="m 384.99362,370.20631 v 2.45466 h -0.34069 c -1.5452,0.024 -2.78044,0.48013 -3.70477,1.36738 -0.9234,0.88724 -1.47259,2.14457 -1.64759,3.77302 0.88709,-1.00127 2.019,-1.50241 3.39758,-1.50241 1.46236,0 2.61382,0.55415 3.45437,1.66145 0.84893,1.10631 1.27247,2.53569 1.27247,4.28516 0,1.8075 -0.49614,3.2729 -1.48842,4.3962 -0.98484,1.11531 -2.27965,1.67245 -3.88629,1.67245 -1.65132,0 -2.99173,-0.65517 -4.02218,-1.96552 -1.02207,-1.31036 -1.53403,-3.02883 -1.53403,-5.15341 v -1.01327 c 0,-3.11785 0.70465,-5.55952 2.11395,-7.32599 1.41674,-1.76648 3.45064,-2.64972 6.10169,-2.64972 z m -2.96568,8.4863 c -0.60598,0 -1.16262,0.18305 -1.66993,0.54915 -0.49987,0.3671 -0.86755,0.85524 -1.10212,1.4654 v 0.90324 c 0,1.31936 0.25691,2.36964 0.7726,3.15086 0.51476,0.77321 1.18124,1.16032 1.99945,1.16032 0.81822,0 1.46609,-0.33009 1.94268,-0.98928 0.47752,-0.65917 0.71582,-1.52641 0.71582,-2.6007 0,-1.07529 -0.24202,-1.94953 -0.72699,-2.62571 -0.48497,-0.67519 -1.12819,-1.01328 -1.93151,-1.01328 z" />
  <path
     style="stroke-width:0.964935"
     id="path224"
     fill-opacity="0.8"
     fill="#000000"
     d="m 646.38061,267.70246 h 2.05624 v 2.38065 h -2.05624 v 3.95607 h -2.76182 v -3.95607 h -7.14703 l -0.0791,-1.80749 7.13586,-12.01427 h 2.85211 z m -7.09025,0 h 4.32843 v -7.42402 l -0.20385,0.39011 z" />
  <path
     style="stroke-width:0.964935"
     id="path226"
     fill-opacity="0.8"
     fill="#000000"
     d="m 738.90293,263.7944 h 1.68111 c 0.84893,-0.008 1.51914,-0.24407 2.01156,-0.70819 0.49986,-0.46413 0.75026,-1.13531 0.75026,-2.01454 0,-0.84624 -0.20851,-1.50142 -0.62553,-1.96554 -0.40864,-0.47212 -1.03789,-0.70819 -1.88589,-0.70819 -0.74282,0 -1.35252,0.23206 -1.82912,0.69619 -0.47752,0.45512 -0.71582,1.05328 -0.71582,1.79448 h -2.76182 c 0,-0.91124 0.22341,-1.74247 0.67021,-2.49067 0.45519,-0.74921 1.08351,-1.33137 1.88683,-1.74647 0.81076,-0.42312 1.71555,-0.63518 2.71527,-0.63518 1.65132,0 2.94706,0.44813 3.88628,1.34337 0.94667,0.88724 1.42048,2.12457 1.42048,3.71201 0,0.79821 -0.2383,1.55041 -0.71583,2.25861 -0.47007,0.70019 -1.07978,1.22933 -1.82911,1.58743 0.90851,0.33409 1.59827,0.85923 2.06741,1.57542 0.47753,0.7162 0.71582,1.57143 0.71582,2.56471 0,1.59543 -0.51103,2.86477 -1.53403,3.80903 -1.01462,0.94425 -2.35132,1.41638 -4.01102,1.41638 -1.59081,0 -2.89306,-0.45612 -3.90862,-1.36737 -1.01462,-0.91224 -1.52286,-2.12457 -1.52286,-3.63899 h 2.76182 c 0,0.78221 0.24202,1.41639 0.72699,1.90552 0.49242,0.48813 1.15146,0.7322 1.97712,0.7322 0.85637,0 1.53031,-0.24407 2.02272,-0.7322 0.49242,-0.48913 0.73816,-1.19733 0.73816,-2.12457 0,-0.93626 -0.25691,-1.65745 -0.7726,-2.16159 -0.51476,-0.50514 -1.27991,-0.75721 -2.29546,-0.75721 h -1.62433 z" />
  <path
     style="stroke-width:0.964935"
     id="path228"
     fill-opacity="0.8"
     fill="#000000"
     d="m 638.17428,125.95896 0.89826,-8.96243 h 8.88585 v 2.56369 h -6.59131 l -0.45426,4.25016 c 0.76516,-0.47213 1.62898,-0.7082 2.59055,-0.7082 1.57592,0 2.79905,0.54116 3.67032,1.62345 0.87872,1.0823 1.31808,2.53969 1.31808,4.37118 0,1.80749 -0.48497,3.24789 -1.45398,4.32218 -0.96994,1.06729 -2.29919,1.60044 -3.98868,1.60044 -1.51448,0 -2.77205,-0.46013 -3.77271,-1.38038 -0.99228,-0.92825 -1.52938,-2.14858 -1.61316,-3.66299 h 2.6706 c 0.10611,0.86322 0.39375,1.52641 0.86289,1.99053 0.47008,0.45613 1.08351,0.68319 1.84121,0.68319 0.848,0 1.50704,-0.32508 1.97712,-0.97627 0.47752,-0.65117 0.71582,-1.53842 0.71582,-2.66172 0,-1.08329 -0.26157,-1.93752 -0.78377,-2.56469 -0.52314,-0.63517 -1.24268,-0.95226 -2.15956,-0.95226 -0.49987,0 -0.9234,0.073 -1.27247,0.22005 -0.34814,0.13804 -0.72699,0.41512 -1.13656,0.83023 z" />
  <path
     style="stroke-width:0.964935"
     id="path230"
     fill-opacity="0.8"
     fill="#000000"
     d="m 645.63035,376.20794 v 2.45466 h -0.34069 c -1.5452,0.024 -2.78044,0.48014 -3.70477,1.36738 -0.92339,0.88724 -1.47259,2.14457 -1.64759,3.77302 0.88709,-1.00127 2.019,-1.50241 3.39758,-1.50241 1.46236,0 2.61382,0.55415 3.45437,1.66145 0.84893,1.1063 1.27247,2.53569 1.27247,4.28516 0,1.80749 -0.49614,3.27289 -1.48842,4.3962 -0.98484,1.1153 -2.27965,1.67245 -3.88628,1.67245 -1.65132,0 -2.99174,-0.65517 -4.02219,-1.96553 -1.02207,-1.31035 -1.53403,-3.02882 -1.53403,-5.1534 v -1.01327 c 0,-3.11785 0.70465,-5.55951 2.11395,-7.326 1.41675,-1.76647 3.45064,-2.64971 6.10169,-2.64971 z m -2.96567,8.48631 c -0.60599,0 -1.16263,0.18304 -1.66994,0.54914 -0.49987,0.3671 -0.86755,0.85524 -1.10212,1.4654 v 0.90324 c 0,1.31936 0.25691,2.36964 0.7726,3.15086 0.51476,0.77321 1.18124,1.16032 1.99946,1.16032 0.81821,0 1.46608,-0.33009 1.94267,-0.98928 0.47752,-0.65917 0.71582,-1.52641 0.71582,-2.6007 0,-1.07529 -0.24202,-1.94953 -0.72699,-2.62572 -0.48497,-0.67518 -1.12819,-1.01326 -1.9315,-1.01326 z" />
  <path
     id="path232"
     stroke-width="1.92987"
     stroke-opacity="0.8"
     stroke="#000000"
     fill-opacity="0.7"
     fill="#bababa"
     d="m 534.3394,217.0237 c 0,21.46283 -2.85584,40.8501 -7.4449,54.83689 -2.29547,6.99791 -5.00795,12.58942 -7.97363,16.41246 -2.97033,3.82904 -6.09983,5.77157 -9.24888,5.77157 -3.14905,0 -6.27855,-1.94253 -9.24888,-5.77157 -2.96568,-3.82304 -5.67816,-9.41455 -7.97363,-16.41246 -4.58905,-13.98679 -7.44489,-33.37406 -7.44489,-54.83689 0,-21.46283 2.85584,-40.8501 7.44489,-54.83689 2.29547,-6.99791 5.00795,-12.58942 7.97363,-16.41246 2.97033,-3.82904 6.09983,-5.77157 9.24888,-5.77157 3.14905,0 6.27855,1.94253 9.24888,5.77157 2.96568,3.82304 5.67816,9.41455 7.97363,16.41246 4.58906,13.98679 7.4449,33.37406 7.4449,54.83689 z" />
  <path
     style="stroke-width:0.964935"
     id="path234"
     fill-opacity="0.8"
     fill="#000000"
     d="m 514.71252,218.54111 c 0,2.5557 -0.44681,4.48522 -1.34042,5.78757 -0.88709,1.29435 -2.23868,1.94153 -4.05662,1.94153 -1.78816,0 -3.13602,-0.63117 -4.04546,-1.89251 -0.90106,-1.26935 -1.36369,-3.14586 -1.38603,-5.62853 v -3.07784 c 0,-2.55569 0.44308,-4.47221 1.32925,-5.75056 0.89361,-1.27835 2.25358,-1.91752 4.07897,-1.91752 1.81049,0 3.15929,0.62317 4.04545,1.8685 0.89361,1.24535 1.35252,3.10985 1.37486,5.59253 z m -2.76089,-3.3209 c 0,-1.66945 -0.21223,-2.88978 -0.6367,-3.66299 -0.42446,-0.78222 -1.09839,-1.17233 -2.02272,-1.17233 -0.90106,0 -1.56383,0.37011 -1.98829,1.11131 -0.42447,0.7322 -0.64787,1.88051 -0.67021,3.44293 v 4.02909 c 0,1.66045 0.21596,2.8978 0.64787,3.71201 0.43191,0.81422 1.10957,1.22134 2.0339,1.22134 0.88616,0 1.54148,-0.3741 1.96594,-1.12331 0.42354,-0.75721 0.64694,-1.93752 0.67021,-3.54096 z" />
  <path
     id="path236"
     stroke-width="1.92987"
     stroke-opacity="0.8"
     stroke="#000000"
     fill-opacity="0.7"
     fill="#bababa"
     d="m 538.06278,388.57029 c 0,11.82822 -3.23189,22.49511 -8.41112,30.1812 -5.18016,7.68609 -12.25551,12.33035 -19.97967,12.33035 -7.72416,0 -14.79951,-4.64426 -19.97966,-12.33035 -5.17922,-7.68609 -8.41112,-18.35298 -8.41112,-30.1812 0,-11.82821 3.2319,-22.4951 8.41112,-30.1812 5.18015,-7.68608 12.2555,-12.33034 19.97966,-12.33034 7.72416,0 14.79951,4.64426 19.97967,12.33034 5.17923,7.6861 8.41112,18.35299 8.41112,30.1812 z" />
  <path
     style="stroke-width:0.964935"
     id="path238"
     fill-opacity="0.8"
     fill="#000000"
     d="m 504.89024,397.0726 h -2.74972 v -14.27387 l -4.05663,1.4894 v -2.50268 l 6.45356,-2.55169 h 0.35279 z" />
  <path
     style="stroke-width:0.964935"
     id="path240"
     fill-opacity="0.8"
     fill="#000000"
     d="m 521.42299,389.58757 c 0,2.55569 -0.44681,4.48522 -1.34042,5.78758 -0.8871,1.29435 -2.23869,1.94152 -4.05663,1.94152 -1.78815,0 -3.13602,-0.63117 -4.04545,-1.89252 -0.90106,-1.26933 -1.36369,-3.14585 -1.38603,-5.62853 v -3.07783 c 0,-2.5557 0.44308,-4.47222 1.32925,-5.75056 0.89361,-1.27835 2.25357,-1.91753 4.07896,-1.91753 1.8105,0 3.15929,0.62318 4.04546,1.86852 0.89361,1.24533 1.35252,3.10984 1.37486,5.59251 z m -2.76089,-3.3209 c 0,-1.66946 -0.21224,-2.88979 -0.6367,-3.663 -0.42447,-0.78221 -1.0984,-1.17231 -2.02273,-1.17231 -0.90106,0 -1.56382,0.37009 -1.98828,1.1113 -0.42447,0.73219 -0.64787,1.8805 -0.67021,3.44293 v 4.0291 c 0,1.66045 0.21595,2.89778 0.64786,3.71201 0.43099,0.81422 1.10957,1.22133 2.0339,1.22133 0.88617,0 1.54148,-0.37411 1.96595,-1.12331 0.42353,-0.7572 0.64694,-1.93753 0.67021,-3.54096 z" />
  <path
     style="stroke-width:0.964935"
     id="path242"
     fill-opacity="0.8"
     fill="#000000"
     d="M 332.70989,135.00142 H 321.3694 v -2.41765 l 5.35236,-6.12967 c 0.73444,-0.86324 1.27619,-1.61544 1.62526,-2.25861 0.35558,-0.64317 0.53337,-1.25335 0.53337,-1.8315 0,-0.79021 -0.18523,-1.40838 -0.55664,-1.85651 -0.37141,-0.45512 -0.90106,-0.68318 -1.59082,-0.68318 -0.74188,0 -1.32924,0.27608 -1.76116,0.83022 -0.42446,0.54515 -0.63576,1.26535 -0.63576,2.16059 h -3.29613 c 0,-1.08229 0.23923,-2.07156 0.71675,-2.9668 0.48404,-0.89525 1.16635,-1.59544 2.04507,-2.10057 0.87872,-0.51214 1.87472,-0.76921 2.98801,-0.76921 1.70438,0 3.02618,0.44012 3.96634,1.31935 0.94667,0.87924 1.41954,2.12058 1.41954,3.72402 0,0.87923 -0.2113,1.77447 -0.63577,2.68573 -0.42447,0.91224 -1.15146,1.97453 -2.1819,3.18786 l -3.76062,4.26116 h 7.11259 z" />
  <path
     style="stroke-width:0.964935"
     id="path244"
     fill-opacity="0.8"
     fill="#000000"
     d="m 702.15315,138.00223 h -11.1236 v -2.03954 l 5.51061,-6.45876 c 0.79494,-0.95226 1.35996,-1.74648 1.69321,-2.38065 0.34067,-0.64318 0.51102,-1.28635 0.51102,-1.92953 0,-0.84722 -0.2234,-1.53041 -0.6702,-2.05155 -0.43936,-0.52114 -1.03417,-0.78121 -1.78443,-0.78121 -0.89361,0 -1.58616,0.29307 -2.07858,0.87924 -0.49242,0.58616 -0.73909,1.38737 -0.73909,2.40465 h -2.76089 c 0,-1.0823 0.22713,-2.05456 0.68138,-2.91779 0.46263,-0.87124 1.11795,-1.54643 1.96595,-2.02655 0.85637,-0.48114 1.84121,-0.7212 2.9545,-0.7212 1.60571,0 2.87072,0.43611 3.79505,1.30735 0.93177,0.86224 1.3972,2.05856 1.3972,3.58898 0,0.88724 -0.23458,1.8195 -0.70372,2.79676 -0.46263,0.96826 -1.22406,2.07156 -2.2843,3.3089 l -4.04544,4.65226 h 7.68133 z" />
</svg>
