<svg width="188" height="33" viewBox="0 0 188 33" fill="none" xmlns="http://www.w3.org/2000/svg">
<path d="M0.409971 11.7957L3.95012 15.3473C4.0635 15.458 4.21424 15.5208 4.37172 15.523H10.956C12.1728 15.523 13.3398 15.0338 14.2002 14.163C15.0606 13.2922 15.544 12.1111 15.544 10.8796V4.77404C15.5444 4.53111 15.4969 4.29054 15.4042 4.06643C15.3116 3.84231 15.1757 3.63915 15.0046 3.46885L11.8178 0.256072C11.7306 0.180086 11.6242 0.130177 11.5105 0.111932C11.3968 0.093687 11.2804 0.107827 11.1742 0.152768C11.068 0.197709 10.9763 0.271678 10.9093 0.366392C10.8423 0.461106 10.8026 0.572826 10.7948 0.689044V10.6474C10.7948 10.6823 10.7811 10.7159 10.7567 10.7406C10.7323 10.7653 10.6992 10.7792 10.6646 10.7792H0.831566C0.720624 10.7905 0.61476 10.8319 0.525126 10.8991C0.435491 10.9662 0.365404 11.0566 0.322246 11.1606C0.279089 11.2647 0.264459 11.3786 0.279897 11.4904C0.295336 11.6021 0.340272 11.7076 0.409971 11.7957V11.7957Z" fill="#FF9900"/>
<path d="M33.1392 21.1078L29.5494 17.4934C29.4345 17.3813 29.2813 17.3183 29.1216 17.3177H18.402C18.2375 17.3177 18.0798 17.3838 17.9636 17.5015C17.8473 17.6192 17.782 17.7788 17.782 17.9452V28.7444C17.7843 28.9068 17.8487 29.062 17.9618 29.1774L21.5577 32.8043C21.6451 32.8843 21.7531 32.9374 21.8692 32.9575C21.9853 32.9776 22.1047 32.9637 22.2133 32.9177C22.322 32.8716 22.4154 32.7951 22.4826 32.6973C22.5499 32.5994 22.5882 32.4841 22.5931 32.365V22.7706C22.5931 22.6042 22.6584 22.4446 22.7747 22.3269C22.891 22.2092 23.0487 22.1431 23.2131 22.1431H32.7114C32.8262 22.1352 32.9366 22.0951 33.0302 22.0273C33.1238 21.9595 33.1968 21.8666 33.2412 21.7592C33.2856 21.6517 33.2996 21.5339 33.2816 21.4188C33.2636 21.3038 33.2143 21.1961 33.1392 21.1078V21.1078Z" fill="#3A3A3A"/>
<path d="M0.149475 21.1078L3.73923 17.4934C3.85416 17.3813 4.00739 17.3183 4.16702 17.3177H14.8929C15.0573 17.3177 15.215 17.3838 15.3313 17.5015C15.4475 17.6192 15.5129 17.7788 15.5129 17.9452V28.7444C15.5138 28.8252 15.4983 28.9053 15.4674 28.9798C15.4364 29.0542 15.3907 29.1215 15.3331 29.1774L11.7495 32.8043C11.6622 32.8843 11.5541 32.9374 11.438 32.9575C11.3219 32.9776 11.2025 32.9637 11.0939 32.9177C10.9853 32.8716 10.8919 32.7951 10.8246 32.6973C10.7573 32.5994 10.719 32.4841 10.7141 32.365V22.7706C10.7141 22.6042 10.6488 22.4446 10.5325 22.3269C10.4163 22.2092 10.2586 22.1431 10.0941 22.1431H0.589669C0.473786 22.1374 0.361821 22.0988 0.266505 22.0319C0.171189 21.965 0.0963462 21.8723 0.0504874 21.7644C0.00462854 21.6565 -0.0104062 21.5378 0.00709275 21.4217C0.0245917 21.3057 0.0739221 21.1969 0.149475 21.1078V21.1078Z" fill="#3A3A3A"/>
<path d="M33.1392 11.8522L29.5494 15.4603C29.4936 15.523 29.4258 15.5737 29.3502 15.6093C29.2746 15.6448 29.1926 15.6646 29.1092 15.6674H18.402C18.2376 15.6674 18.0799 15.6013 17.9636 15.4836C17.8473 15.3659 17.782 15.2063 17.782 15.0399V4.21558C17.781 4.05488 17.8409 3.89991 17.9494 3.78261L21.5701 0.161956C21.6579 0.0816921 21.7665 0.0285057 21.8831 0.00867268C21.9998 -0.0111604 22.1196 0.00318756 22.2284 0.0500234C22.3373 0.0968593 22.4306 0.174229 22.4974 0.273003C22.5642 0.371776 22.6018 0.487833 22.6055 0.607478V10.1893C22.6055 10.3558 22.6709 10.5154 22.7871 10.633C22.9034 10.7507 23.0611 10.8168 23.2255 10.8168H32.7114C32.8262 10.8248 32.9366 10.8649 33.0302 10.9327C33.1238 11.0005 33.1969 11.0933 33.2413 11.2008C33.2857 11.3083 33.2996 11.4261 33.2816 11.5412C33.2636 11.6562 33.2143 11.7639 33.1392 11.8522Z" fill="#3A3A3A"/>
<path d="M46.283 10.3839V15.1152H52.5759V10.3839H55.8122V22.5698H52.5759V18.0267H46.283V22.5698H43.0466V10.3839H46.283Z" fill="#3A3A3A"/>
<path d="M61.8758 10.3839V22.5698H58.6394V10.3839H61.8758Z" fill="#3A3A3A"/>
<path d="M72.8434 22.5698V13.2954H68.1687V10.3839H80.7731V13.2954H76.0798V22.5698H72.8434Z" fill="#3A3A3A"/>
<path d="M94.2084 13.2954H85.8943V15.1152H92.3856V18.0267H85.8943V19.6645H94.2084V22.5698H82.658V10.3839H94.2084V13.2954Z" fill="#3A3A3A"/>
<path d="M96.1428 16.0063C96.139 15.2195 96.2433 14.436 96.4528 13.6783C96.6494 12.9768 97.0062 12.3319 97.4944 11.7958C98.0509 11.2216 98.7356 10.7912 99.4908 10.5408C100.508 10.193 101.579 10.0315 102.653 10.0639H103.273C104.065 10.0614 104.856 10.1138 105.641 10.2208C106.406 10.3215 107.164 10.4703 107.91 10.6663V13.6343C107.489 13.5088 107.067 13.4084 106.639 13.3206C106.211 13.2327 105.796 13.17 105.399 13.1135C105.002 13.057 104.593 13.0194 104.215 12.9943C103.837 12.9692 103.496 12.9566 103.198 12.9566C102.469 12.9084 101.737 12.9762 101.028 13.1574C100.59 13.2822 100.2 13.5408 99.9123 13.8979C99.6719 14.2275 99.528 14.6189 99.4969 15.0274C99.4535 15.4603 99.4349 15.9435 99.4349 16.4643C99.4349 16.9852 99.4349 17.4621 99.4969 17.9013C99.5216 18.339 99.6834 18.7574 99.9587 19.0958C100.234 19.4343 100.609 19.6752 101.028 19.7838C101.732 19.9855 102.462 20.0745 103.192 20.0473C103.49 20.0473 103.812 20.0473 104.209 20.0097C104.606 19.972 104.984 19.9469 105.393 19.8905C105.802 19.834 106.23 19.765 106.633 19.6771C107.036 19.5893 107.482 19.4763 107.904 19.3571V22.3377C107.155 22.5206 106.398 22.6651 105.635 22.7707C104.849 22.8724 104.058 22.9227 103.266 22.9213H102.647C101.573 22.9523 100.503 22.793 99.4845 22.4507C98.7268 22.1901 98.0421 21.7489 97.4882 21.1643C96.9999 20.6281 96.6432 19.9833 96.4466 19.2818C96.2367 18.5242 96.1324 17.7406 96.1366 16.9538L96.1428 16.0063Z" fill="#3A3A3A"/>
<path d="M113.155 10.3839V15.1152H119.448V10.3839H122.685V22.5698H119.448V18.0267H113.155V22.5698H109.919V10.3839H113.155Z" fill="#3A3A3A"/>
<path d="M128.978 22.5698V21.8482L134.334 10.3839H137.571L142.927 21.8482V22.5698H140.02L138.972 20.2042H132.914L131.891 22.5698H128.978ZM137.788 17.4745L135.928 13.308L134.068 17.4745H137.788Z" fill="#3A3A3A"/>
<path d="M157.063 16.4643V22.3565C156.214 22.5385 155.333 22.6828 154.434 22.7895C153.528 22.8904 152.618 22.9407 151.706 22.9401H151.055C149.897 22.9717 148.741 22.8127 147.633 22.4695C146.823 22.2116 146.081 21.7718 145.463 21.1831C144.935 20.6627 144.547 20.0149 144.335 19.3006C144.112 18.5452 144.002 17.7608 144.006 16.9726V16.0063C144.002 15.2181 144.113 14.4337 144.335 13.6783C144.547 12.964 144.935 12.3161 145.463 11.7958C146.084 11.2182 146.826 10.7893 147.633 10.5408C148.74 10.1924 149.896 10.0313 151.055 10.0639H151.706C152.558 10.0622 153.409 10.1146 154.254 10.2208C155.089 10.3179 155.918 10.4667 156.734 10.6663V13.6343C155.846 13.3885 154.94 13.2143 154.025 13.1135C153.235 13.0158 152.44 12.9634 151.644 12.9566C150.81 12.929 149.975 13.0177 149.164 13.2202C148.677 13.3372 148.233 13.5944 147.887 13.9606C147.615 14.2764 147.449 14.6723 147.416 15.0901C147.373 15.5231 147.354 16.0063 147.354 16.5271C147.354 17.0479 147.354 17.5248 147.416 17.964C147.452 18.3832 147.616 18.7805 147.887 19.0998C148.233 19.4681 148.676 19.7274 149.164 19.8465C149.975 20.049 150.81 20.1377 151.644 20.1101C152.264 20.1101 153.027 20.0724 153.858 20.0034V16.4643H157.063Z" fill="#3A3A3A"/>
<path d="M168.855 22.5698L166.45 18.7484C165.83 18.7484 165.21 18.7484 164.59 18.7484C164 18.7387 163.411 18.6842 162.829 18.5852V22.5698H159.593V10.3838C160.622 10.2646 161.707 10.1705 162.835 10.114C163.964 10.0575 165.08 10.0199 166.171 10.0199H166.679C167.517 10.0003 168.353 10.1082 169.159 10.3399C169.741 10.5114 170.28 10.8067 170.74 11.2059C171.12 11.5427 171.405 11.9759 171.565 12.4609C171.723 12.9596 171.803 13.4806 171.8 14.0045V14.7324C171.811 15.453 171.656 16.1663 171.348 16.8157C171.009 17.4816 170.439 17.9977 169.748 18.2652L171.98 21.8294V22.5698H168.855ZM166.196 12.9252C165.774 12.9252 165.259 12.9252 164.639 12.9629C164.019 13.0005 163.399 13.0319 162.817 13.0884V15.6674C163.381 15.7427 163.914 15.7866 164.416 15.8054C164.918 15.8242 165.328 15.8054 165.656 15.8054C166.216 15.817 166.776 15.7834 167.33 15.705C167.64 15.6736 167.94 15.5705 168.204 15.4038C168.29 15.3463 168.364 15.2715 168.421 15.1841C168.477 15.0967 168.515 14.9985 168.533 14.8955C168.573 14.6488 168.592 14.3989 168.589 14.1488C168.589 13.9933 168.576 13.838 168.552 13.6845C168.519 13.5202 168.426 13.3745 168.291 13.2766C168.079 13.1308 167.838 13.0344 167.584 12.9942C167.125 12.9275 166.659 12.9065 166.196 12.9315V12.9252Z" fill="#3A3A3A"/>
<path d="M173.945 16.0062C173.94 15.2197 174.042 14.4362 174.249 13.6782C174.449 12.9714 174.818 12.3251 175.322 11.7957C175.903 11.2216 176.607 10.792 177.38 10.5407C178.427 10.1777 179.529 10.0015 180.635 10.0199H181.255C182.359 9.98737 183.461 10.1487 184.51 10.4968C185.283 10.7481 185.988 11.1777 186.569 11.7518C187.073 12.2812 187.441 12.9275 187.641 13.6343C187.848 14.3923 187.951 15.1758 187.945 15.9623V16.9098C187.951 17.6963 187.849 18.4799 187.641 19.2378C187.441 19.9446 187.073 20.5909 186.569 21.1203C185.991 21.7056 185.286 22.1461 184.51 22.4067C183.459 22.7493 182.359 22.9085 181.255 22.8773H180.635C179.532 22.9085 178.431 22.7493 177.38 22.4067C176.604 22.1461 175.9 21.7056 175.322 21.1203C174.818 20.5909 174.449 19.9446 174.249 19.2378C174.041 18.4799 173.939 17.6963 173.945 16.9098V16.0062ZM177.182 16.4831C177.18 16.9294 177.201 17.3755 177.244 17.8197C177.279 18.2291 177.423 18.6214 177.659 18.9554C177.948 19.3213 178.336 19.594 178.775 19.7398C180.197 20.1202 181.693 20.1202 183.115 19.7398C183.556 19.597 183.945 19.3238 184.231 18.9554C184.468 18.6214 184.611 18.2291 184.647 17.8197C184.689 17.3755 184.71 16.9294 184.709 16.4831C184.71 16.0389 184.69 15.5949 184.647 15.1528C184.611 14.7453 184.468 14.355 184.231 14.0233C183.945 13.655 183.556 13.3818 183.115 13.239C181.693 12.8586 180.197 12.8586 178.775 13.239C178.336 13.3848 177.948 13.6574 177.659 14.0233C177.423 14.355 177.279 14.7453 177.244 15.1528C177.201 15.5949 177.18 16.0389 177.182 16.4831V16.4831Z" fill="#3A3A3A"/>
</svg>
